<svg id="eeWJH0jht531" xmlns="http://www.w3.org/2000/svg" xmlns:xlink="http://www.w3.org/1999/xlink" viewBox="0 0 326.36914 123.46097" shape-rendering="geometricPrecision" text-rendering="geometricPrecision"><g id="eeWJH0jht532" transform="translate(2.747329 2.943729)"><g transform="matrix(1.14411 0 0 1.14411-331.379-2152.63)"><path d="M415.35934,1935.7155c-.0509-.085-.17226-.1903-.26968-.2334-.0974-.043-.19206-.1402-.21027-.2157-.0182-.076-.19663-.2909-.39642-.4785s-.46725-.5073-.59433-.7104-.29427-.3911-.37155-.4179c-.0773-.027-.25539-.2046-.39584-.3952s-.3344-.4061-.43102-.4788c-.21863-.1646-.23639-.6865-.0188-.5521.0695.043.22356.1362.34232.2072s.35609.3024.5274.5141.45158.5582.62283.7699.50837.5605.74915.7751.51999.5454.62045.7353l.18266.3452.56785.079c.31231.044.58896.051.61478.016s.12492-.079.22023-.098c.42242-.086,1.33967-1.0038,1.79217-1.7944.0804-.1404.19574-.6869.25635-1.2144s.15489-1.3205.20953-1.7622.0706-.9218.0355-1.0669c-.0784-.3239.14541-2.1164.27973-2.2401.0535-.049.18736-.069.29744-.043.11008.025.24975.013.31037-.029.0606-.041.65824-.011,1.32804.068c1.05552.1238,1.27425.1783,1.64133.4092.39309.2473.74435.6211.91458.9733.0391.081.14764.2042.24125.274.0936.07.15479.1817.13599.2484-.0188.067.0294.1992.10703.2946.0777.095.17183.287.20924.4259s.11032.2841.16203.3227c.103.077.24844.4954.35346,1.017.0371.1842.13725.464.22259.6217s.19608.4244.24608.5927.28917.5792.53148.9134c.42186.5819.45154.6083.69926.6235.1423.01.2882-.024.32423-.072s.17848-.091.31655-.094c.13807,0,.32186-.057.40841-.1192.0865-.062.1972-.083.24591-.047.0973.073.70763-.2653.71931-.3983.004-.046.054-.067.1112-.049.0667.022.18814-.086.33893-.3026.4266-.6117.52696-.8423.57878-1.3299.0282-.2654.10179-.766.16355-1.1125.0617-.3466.0695-.6984.0173-.7819-.10858-.1735.0313-1.7158.22332-2.4615.12737-.4948.13141-.5009.364-.5469.12936-.026.56609.012.97052.084s.86827.1343,1.03078.1385c.26766.01.31862.037.5414.3192.13525.1713.26118.3861.27984.4772s.14296.302.27624.4687.25645.4228.27368.5692c.0172.1463.11315.3606.21316.4762.1.1155.21718.3273.2604.4706.0881.2922.65523.8076.9692.8809.10561.025.24967,0,.32015-.057.0705-.056.15351-.1174.18452-.1359.031-.019.21112-.1968.40021-.3964.30883-.3258.35326-.4166.43673-.8921.0511-.2912.14116-.5599.20013-.5972.059-.037.11812-.2649.13146-.5059.0371-.6698.15832-.9738.44378-1.1125.27605-.1341,1.3986-.01,1.72519.1965.1187.074.37316.1503.56545.1702.19517.02.38434.091.4282.1605.0432.068.1509.1207.23935.1161.11393-.01.30679.1196.66168.4303.52689.4613.89619.6201,1.02889.4423.0392-.053.18691-.062.32833-.021s.28243.04.31334,0c.0309-.041.15703-.085.28028-.097.13773-.013.28748-.1061.38858-.2416.0992-.1328.22497-.2124.31681-.2003.16969.022.68865-.4167.63955-.5411-.0172-.044.0107-.1357.0621-.2046.0832-.1114.038-.1662-.41128-.4988-.361-.2673-.52952-.4417-.59173-.6124-.0585-.1605-.20112-.3148-.43569-.4712-.30633-.2043-.35602-.2764-.40894-.593-.0331-.1983-.0963-.4151-.14032-.482-.21486-.3259.22701-1.1067.62269-1.1002.095,0,.23163-.035.30368-.082.072-.046.17709-.05.23341-.01.0563.042.12487.046.15232.01.0275-.037.0951-.033.15022.01.0552.041.12278.045.15023.01.0274-.037.11131-.021.18637.035s.26453.1024.42106.1031.41807.072.58118.1574c.16312.086.325.1494.35973.1412.0347-.01.21531.017.40128.055.8259.1714.99445.1832,1.116.078.52539-.4542.9325-.7869,1.03837-.8486.10961-.064.009-.1672-.82375-.8501-.59379-.4868-.99662-.7751-1.07709-.7709-.15646.01-1.98572-1.5163-2.23299-1.8608-.0915-.1275-.23149-.3039-.31114-.392s-.15696-.2529-.1718-.3662c-.0599-.4568-.0363-1.1605.0425-1.2673.0458-.063.0698-.1489.0528-.192-.0651-.1649.35023-.7738.68467-1.0039.27529-.1894.42068-.2184.88498-.1764.30557.028.59371.064.6403.08.20416.071.45522.1339.8363.2085.22488.044.52167.1342.65954.2005.13787.066.28643.1063.33013.089.0437-.017.15114.022.23875.087s.20035.1027.25053.083c.0502-.02.15007.01.22195.062.0719.054.20381.1087.29317.1222.44033.067,1.06583.2223,1.1039.2747.0236.033.15946.028.302-.011.14254-.038.29746-.041.34426-.01.0468.035.18001.045.29602.022s.29764-.01.4036.039c.10595.044.2248.037.2641-.015.0393-.053.13131-.088.20448-.08.15731.019,1.38756-1.0565,1.34163-1.1728-.0172-.044.0225-.1514.0883-.2395.15839-.2122-.0836-.4759-.95646-1.0424-1.06172-.689-3.60906-2.7359-3.63604-2.9217-.0125-.086-.10102-.2148-.19675-.2863-.0957-.071-.15845-.1852-.13937-.2529.0191-.068-.0306-.2197-.11041-.3378s-.12327-.2827-.0966-.3657.009-.3802-.0397-.6604l-.0882-.5094.34972-.3724c.4583-.4882.66448-.6119,1.11804-.671.57907-.076.98479.031,1.15256.3013l.13756.222-.22272-.05c-.12249-.028-.27648-.029-.34218,0-.0657.026-.3011.01-.5231-.036-.50662-.1037-.68828-.019-.98927.4631-.21111.3378-.23133.4451-.16967.8997.0385.2839.10219.5402.14153.5695.0393.029.0781.1521.0862.2726s.088.274.17773.341.17401.1971.18739.2892c.0309.2128,2.84063,2.5877,3.05872,2.5855.19115,0,1.72171,1.3074,1.70818,1.4613-.006.064-.0563.1456-.11252.1811-.0563.036-.0992.125-.0954.1988.005.094-.21751.3347-.73495.797-.63149.5641-.81388.6836-1.22585.8029-.2662.077-.5709.1221-.67714.1001s-.28537-.027-.39807-.011-.25006,0-.30523-.046c-.0552-.041-.12276-.045-.15022-.01-.0275.037-.11298.02-.19006-.038s-.25211-.1212-.38896-.1416c-.13685-.02-.37616-.07-.5318-.1112-.15564-.041-.29998-.052-.32072-.024s-.11119,0-.20097-.071c-.0898-.067-.20474-.1054-.25547-.085-.0507.02-.17072-.032-.26666-.1157-.0959-.084-.39613-.1953-.66711-.248-.27099-.053-.67374-.156-.89501-.2295-.22127-.073-.56836-.141-.7713-.15-.20295-.01-.40715-.045-.45378-.08s-.10725-.033-.1347,0c-.0275.037-.0983.031-.15754-.013-.0873-.065-.1351-.027-.25279.2018-.0798.1551-.18689.3525-.23788.4386s-.087.1958-.08.244c.007.048-.0373.1546-.0985.2365s-.0957.3009-.0768.4865.0312.4341.0274.5521c-.004.1287.0655.2687.17409.3497.0996.074.19128.2055.20375.2914.0287.1978,1.83925,1.7077,2.09387,1.7461.16497.025,1.67825,1.2694,2.02801,1.6678.135.1538.13123.2075-.0296.4209-.10141.1345-.43807.4708-.74817.7471-.61828.551-.8209.6102-1.36682.3989-.16054-.062-.45991-.1205-.66525-.1297-.20535-.01-.38927-.057-.40872-.1064-.0433-.1097-.5757-.2244-.79527-.1714-.088.021-.21945-.01-.29202-.06-.17856-.1333-.67603-.18-.75734-.071-.0361.048-.12227.072-.19144.053-.15504-.044-.36397.098-.41593.2824-.0213.076.0359.3144.12708.5305s.14571.4198.12107.4528.15037.238.38889.4556.41701.4178.39664.4451c-.0204.027.21766.2727.52894.5453.55757.4883.56509.4999.50723.7825-.0512.25-.10888.3291-.44918.6152-.21475.1806-.45698.3278-.53828.3271s-.25227.095-.37993.2127-.30885.2251-.40268.2387c-.0938.014-.20546.072-.24806.1286-.0426.057-.3068.1038-.58708.1038-.55761,0-.7092.1035-1.15766.79-.3898.5968-.49145.8703-.46301,1.2461.0151.1993-.0182.4236-.074.4984-.1456.195-.11824.8135.05,1.1317.14179.2681.15088.2721.59811.2618.24977-.01.61888.02.82024.057s.57678.076.83423.085c.4344.017.5028.046.94953.402.26478.2112.55265.5089.63972.6615.17814.3121.18836,1.0768.0158,1.1858-.0621.039-.0979.1095-.0794.1563.0463.1171-.47934.645-.68795.691-.0936.021-.20491.084-.24744.141-.0981.1315-.65305.4626-.76103.4541-.0448,0-.2135.128-.37485.2924s-.37941.3273-.48459.362c-.10519.035-.26285.159-.35037.2763-.15284.2047-.16807.4511-.0977,1.5793.0112.1802-.007.3661-.0396.4131-.097.138.0344.1774.44066.1323.20958-.023.49182-.034.62722-.023.70178.054,1.34706.01,1.4284-.1001.0542-.073.38813-.1226.82839-.1241.40568,0,1.0278-.01,1.3825-.016.3547-.01.71114.036.7921.097s.27846.1066.43888.1025c.27699-.01.3143.016.74138.4515.24734.2523.45718.5103.46631.5731.009.063.0671.1521.12878.1981s.11595.1569.12055.2462c.005.089.0638.2038.13158.2544.0678.051.11122.1714.0966.2684s.029.2448.0969.3285c.0751.092.10145.3652.0672.6958-.0538.5199-.073.5619-.43655.9537-.22015.2373-.52727.4756-.72944.566-.19206.086-.51158.2926-.71004.4595s-.40683.3159-.46305.3312c-.33852.092-1.63641.8034-1.75428.9613-.0775.1039-.22436.228-.32626.2757-.10189.048-.33867.272-.52617.4984s-.40392.4268-.48092.4454c-.0824.02-.1662.1128-.20363.2256-.035.1055-.0978.2419-.13959.3031-.10128.1485-.003,2.1728.10975,2.2569.0486.036.0809.1541.072.262-.009.1078.007.2135.0358.2349.12101.09,1.5142.028,1.58816-.071.0783-.1049.66101-.1322,2.85952-.1341.57309-.0004,1.20573-.012,1.40587-.027.20014-.014.37868.012.39674.057.0181.046.14701.09.28654.099.16838.01.32013.084.45131.2199.10869.1123.25367.1962.3222.1862.0882-.013.15138.055.21647.2341.0678.1859.18474.3084.44524.4665.24107.1463.36068.2649.37639.3732.0127.087.0659.1908.11828.2299.0918.069.15469,1.0844.0918,1.4834-.0306.194-.59895.9357-1.34076,1.7496-.20192.2216-.56107.6473-.79813.946-.36084.4547-.47167.5491-.68078.5794-.13738.02-.25536,0-.26218-.049-.0156-.1073.2958-.5185.81387-1.075.2202-.2366.64221-.7416.93781-1.1223s.62971-.7663.74249-.857c.17832-.1433.20305-.2368.18974-.7174-.009-.322-.0688-.5927-.14354-.6484-.0705-.053-.12476-.1354-.1205-.1839.0109-.1241-.6733-.7742-1.1283-1.072-.21005-.1375-.48258-.2561-.60563-.2637-.12304-.01-.24052-.056-.26106-.1083-.0543-.1377-3.72586-.09-3.95234.051-.2487.1552-2.28584.1472-2.38466-.01-.0407-.064-.0621-.1965-.0474-.2934.0146-.097-.0129-.2057-.0611-.2417-.0773-.058-.15097-1.2588-.14047-2.2916.007-.7068.7756-1.8248,1.54445-2.2471.13928-.077.28465-.1813.32306-.2327.0384-.051.12372-.1014.18958-.1109.0659-.01.19749-.098.2925-.1966.17242-.1788.37823-.2789,1.11572-.5427.21484-.077.41738-.1755.45009-.2193.0327-.044.26868-.2083.5244-.3656.2557-.1572.60721-.4374.78111-.6226s.39621-.409.494-.4973c.20386-.1842.2111-.5384.014-.6855-.0675-.05-.11547-.1799-.1065-.2877s-.0355-.2348-.0987-.282c-.0633-.047-.12633-.1891-.14011-.3153-.0178-.1629-.17507-.3844-.54304-.7645-.49006-.5063-.53176-.5348-.77349-.5287-.14052,0-.2865-.043-.32438-.1026-.0385-.061-.25754-.096-.49647-.078-.23517.017-.77695.024-1.20393.015-.47562-.01-.85323.036-.97482.1186-.10916.074-.35428.1329-.54471.1313-.19042,0-.80433-.01-1.36424-.015l-1.01802-.012-.0431-.5191c-.0237-.2854-.0562-.8608-.0722-1.2784-.0268-.6984-.009-.7863.22105-1.0934.13791-.1834.34933-.377.47052-.4297.1212-.053.29328-.1913.38238-.308.0992-.1298.27506-.2329.45341-.2658.18512-.034.398-.1619.58382-.3506.16086-.1632.31647-.2789.34581-.257.18937.1413.80955-.8192.76894-1.191-.022-.2017-.10079-.2887-.56745-.6265-.49955-.3617-.58216-.3943-1.05777-.4175-.31529-.015-.55622-.076-.61958-.1551-.11221-.1406-.68801-.1842-.69953-.053-.004.044-.21742.062-.47463.04-.41194-.035-.47177-.061-.50228-.2159-.019-.097-.0656-.1993-.10339-.2275-.11393-.085-.0962-1.4495.0208-1.6063.0598-.08.0909-.2201.069-.3109-.0569-.2358.0307-.6871.14195-.731.0519-.02.0846-.1401.0727-.2659-.016-.1693.0567-.3338.28003-.633.33196-.4448.31392-.6017-.0921-.8014-.11013-.054-.19618-.1446-.19122-.201.0135-.1542-.70305-.543-1.01888-.5529-.14855,0-.36152-.077-.47328-.1602-.25967-.1938-.76116-.2483-1.16471-.1266-.27489.083-.31771.1217-.33228.3009-.0391.4811-.21581,1.2677-.29151,1.2976-.0451.018-.10669.2807-.13686.5843-.0542.5452-.0588.5548-.37946.7917-.17854.1319-.34628.3017-.37276.3773-.0265.076-.0967.1332-.15588.1281-.0593-.01-.18781.041-.28568.1036-.20161.1282-.84811.055-1.24458-.1413-.25871-.1279-.72441-.6647-.72343-.8338.00027-.045-.0999-.2928-.22254-.5494s-.22441-.5283-.22613-.6038c-.002-.075-.11223-.2736-.24562-.4402s-.25562-.3481-.27161-.4034c-.016-.055-.10444-.2096-.19655-.3428-.15565-.2252-.23785-.2544-1.16392-.4134l-.99644-.1711-.14119,1.1853c-.0777.6519-.0998,1.2392-.0492,1.3051.0506.066.0748.2403.0539.3876-.0209.1474-.10095.7574-.17783,1.3555s-.19777,1.1652-.26866,1.2602-.13178.2687-.13533.3862c-.006.2063-.30222.643-.39111.5771-.024-.018-.19052.09-.37011.2394s-.39535.2753-.47946.2797c-.0841,0-.18147.046-.21635.093s-.12149.069-.19246.049-.16181.01-.20186.061c-.04.054-.18306.1006-.31781.1044-.13474,0-.30632.046-.38128.094s-.39281.03-.70633-.038c-.54457-.1192-.58167-.1397-.83058-.458-.36082-.4613-.62576-.9573-.62657-1.1729-.00016-.041-.0693-.1993-.15359-.3522-.16636-.3017-.21456-.4234-.58098-1.4672-.13398-.3817-.33082-.8299-.43743-.9961s-.21168-.3774-.23352-.4692c-.0218-.092-.11044-.2199-.19688-.2844-.16366-.1222-.47017-.5185-.59501-.7693-.0398-.08-.20077-.2409-.35774-.3578-.22922-.1701-.46794-.2299-1.20851-.301-.88813-.085-1.63307-.044-1.73754.096-.10134.1358-.19717,1.3989-.11102,1.4632.0491.037.0345.4826-.0325.9911-.067.5084-.19365,1.5033-.28157,2.2108-.11137.8965-.20363,1.3229-.30429,1.4066-.0795.066-.12786.1621-.10762.2134.0587.1488-.64763.9511-.915,1.0393-.13847.046-.32785.2051-.4703.3959-.13115.1757-.26142.3023-.28948.2814s-.13066.01-.228.061c-.099.056-.46393.053-.82793,0-.78059-.1253-.94287-.1844-1.06429-.3878Z" paint-order="stroke fill markers" stroke="#3940a5" stroke-width="3.03742" stroke-linecap="square"/><path d="M444.52988,1967.0982c-1.28164-2.3811-1.09454-5.0282.50708-7.1738c3.56833-4.7805,11.12642-2.7785,11.84672,3.138.22122,1.8171-.16952,3.2884-1.26446,4.761-2.22795,2.9965-6.24373,3.5804-9.24035,1.3436-.89181-.6657-1.39956-1.2338-1.84899-2.0688Zm5.05963,1.3588c1.05229.1789,2.77047-.2799,3.65559-.9761c3.07844-2.4217,1.72372-7.5463-2.165-8.1897-1.46814-.2429-3.67606.6153-4.53158,1.7615-.81603,1.0932-1.05131,3.4688-.4675,4.7204.61019,1.3081,2.0944,2.4435,3.50849,2.6839Z" paint-order="stroke fill markers" fill="#fbc200" stroke="#3940a5" stroke-width="3.03742" stroke-linecap="square"/><path d="M451.08428,1908.9112c-3.12411-3.9884-1.0985-9.64,3.8273-10.6786c1.92968-.4068,3.2509-.1427,5.01383,1.0023c1.31614.8548,1.50646,1.0652,2.20984,2.4427c1.25414,2.4561,1.07243,4.8223-.53686,6.9911-2.61345,3.5219-7.85068,3.6427-10.51411.2425Z" paint-order="stroke fill markers" fill="#0f0" stroke="#3940a5" stroke-width="3.03742" stroke-linecap="square"/><path d="M400.14068,1935.9641c-.86738-1.1873-1.3678-3.6727-1.0588-5.2586.33202-1.704,1.78169-3.6461,3.32091-4.449c2.46048-1.2835,5.78949-.8879,7.68817.9134c1.10063,1.0443,2.1141,3.0065,2.18559,4.2318.11512,1.9727-.20163,3.0173-1.40664,4.6389-1.00182,1.3481-1.2768,1.5821-2.48948,2.1179-2.98745,1.3198-6.32115.432-8.23975-2.1944Z" paint-order="stroke fill markers" fill="#d40000" stroke="#3940a5" stroke-width="3.03742" stroke-linecap="square"/></g></g><script><![CDATA[!function(t,n){"object"==typeof exports&&"undefined"!=typeof module?module.exports=n():"function"==typeof define&&define.amd?define(n):((t="undefined"!=typeof globalThis?globalThis:t||self).__SVGATOR_PLAYER__=t.__SVGATOR_PLAYER__||{},t.__SVGATOR_PLAYER__["5c7f360c"]=n())}(this,(function(){"use strict";function t(t,n){var e=Object.keys(t);if(Object.getOwnPropertySymbols){var r=Object.getOwnPropertySymbols(t);n&&(r=r.filter((function(n){return Object.getOwnPropertyDescriptor(t,n).enumerable}))),e.push.apply(e,r)}return e}function n(n){for(var e=1;e<arguments.length;e++){var r=null!=arguments[e]?arguments[e]:{};e%2?t(Object(r),!0).forEach((function(t){o(n,t,r[t])})):Object.getOwnPropertyDescriptors?Object.defineProperties(n,Object.getOwnPropertyDescriptors(r)):t(Object(r)).forEach((function(t){Object.defineProperty(n,t,Object.getOwnPropertyDescriptor(r,t))}))}return n}function e(t){return(e="function"==typeof Symbol&&"symbol"==typeof Symbol.iterator?function(t){return typeof t}:function(t){return t&&"function"==typeof Symbol&&t.constructor===Symbol&&t!==Symbol.prototype?"symbol":typeof t})(t)}function r(t,n){if(!(t instanceof n))throw new TypeError("Cannot call a class as a function")}function i(t,n){for(var e=0;e<n.length;e++){var r=n[e];r.enumerable=r.enumerable||!1,r.configurable=!0,"value"in r&&(r.writable=!0),Object.defineProperty(t,r.key,r)}}function u(t,n,e){return n&&i(t.prototype,n),e&&i(t,e),t}function o(t,n,e){return n in t?Object.defineProperty(t,n,{value:e,enumerable:!0,configurable:!0,writable:!0}):t[n]=e,t}function a(t){return(a=Object.setPrototypeOf?Object.getPrototypeOf:function(t){return t.__proto__||Object.getPrototypeOf(t)})(t)}function l(t,n){return(l=Object.setPrototypeOf||function(t,n){return t.__proto__=n,t})(t,n)}function s(){if("undefined"==typeof Reflect||!Reflect.construct)return!1;if(Reflect.construct.sham)return!1;if("function"==typeof Proxy)return!0;try{return Boolean.prototype.valueOf.call(Reflect.construct(Boolean,[],(function(){}))),!0}catch(t){return!1}}function f(t,n,e){return(f=s()?Reflect.construct:function(t,n,e){var r=[null];r.push.apply(r,n);var i=new(Function.bind.apply(t,r));return e&&l(i,e.prototype),i}).apply(null,arguments)}function c(t,n){if(n&&("object"==typeof n||"function"==typeof n))return n;if(void 0!==n)throw new TypeError("Derived constructors may only return object or undefined");return function(t){if(void 0===t)throw new ReferenceError("this hasn't been initialised - super() hasn't been called");return t}(t)}function h(t,n,e){return(h="undefined"!=typeof Reflect&&Reflect.get?Reflect.get:function(t,n,e){var r=function(t,n){for(;!Object.prototype.hasOwnProperty.call(t,n)&&null!==(t=a(t)););return t}(t,n);if(r){var i=Object.getOwnPropertyDescriptor(r,n);return i.get?i.get.call(e):i.value}})(t,n,e||t)}function v(t){return function(t){if(Array.isArray(t))return y(t)}(t)||function(t){if("undefined"!=typeof Symbol&&null!=t[Symbol.iterator]||null!=t["@@iterator"])return Array.from(t)}(t)||function(t,n){if(!t)return;if("string"==typeof t)return y(t,n);var e=Object.prototype.toString.call(t).slice(8,-1);"Object"===e&&t.constructor&&(e=t.constructor.name);if("Map"===e||"Set"===e)return Array.from(t);if("Arguments"===e||/^(?:Ui|I)nt(?:8|16|32)(?:Clamped)?Array$/.test(e))return y(t,n)}(t)||function(){throw new TypeError("Invalid attempt to spread non-iterable instance.\nIn order to be iterable, non-array objects must have a [Symbol.iterator]() method.")}()}function y(t,n){(null==n||n>t.length)&&(n=t.length);for(var e=0,r=new Array(n);e<n;e++)r[e]=t[e];return r}Number.isInteger||(Number.isInteger=function(t){return"number"==typeof t&&isFinite(t)&&Math.floor(t)===t}),Number.EPSILON||(Number.EPSILON=2220446049250313e-31);var g=d(Math.pow(10,-6));function d(t){var n=arguments.length>1&&void 0!==arguments[1]?arguments[1]:6;if(Number.isInteger(t))return t;var e=Math.pow(10,n);return Math.round((+t+Number.EPSILON)*e)/e}function p(t,n){var e=arguments.length>2&&void 0!==arguments[2]?arguments[2]:g;return Math.abs(t-n)<e}var m=Math.PI/180;function b(t){return t}function w(t,n,e){var r=1-e;return 3*e*r*(t*r+n*e)+e*e*e}function x(){var t=arguments.length>0&&void 0!==arguments[0]?arguments[0]:0,n=arguments.length>1&&void 0!==arguments[1]?arguments[1]:0,e=arguments.length>2&&void 0!==arguments[2]?arguments[2]:1,r=arguments.length>3&&void 0!==arguments[3]?arguments[3]:1;return t<0||t>1||e<0||e>1?null:p(t,n)&&p(e,r)?b:function(i){if(i<=0)return t>0?i*n/t:0===n&&e>0?i*r/e:0;if(i>=1)return e<1?1+(i-1)*(r-1)/(e-1):1===e&&t<1?1+(i-1)*(n-1)/(t-1):1;for(var u,o=0,a=1;o<a;){var l=w(t,e,u=(o+a)/2);if(p(i,l))break;l<i?o=u:a=u}return w(n,r,u)}}function A(){return 1}function k(t){return 1===t?1:0}function _(){var t=arguments.length>0&&void 0!==arguments[0]?arguments[0]:1,n=arguments.length>1&&void 0!==arguments[1]?arguments[1]:0;if(1===t){if(0===n)return k;if(1===n)return A}var e=1/t;return function(t){return t>=1?1:(t+=n*e)-t%e}}var S=Math.sin,O=Math.cos,j=Math.acos,M=Math.asin,P=Math.tan,E=Math.atan2,I=Math.PI/180,R=180/Math.PI,F=Math.sqrt,N=function(){function t(){var n=arguments.length>0&&void 0!==arguments[0]?arguments[0]:1,e=arguments.length>1&&void 0!==arguments[1]?arguments[1]:0,i=arguments.length>2&&void 0!==arguments[2]?arguments[2]:0,u=arguments.length>3&&void 0!==arguments[3]?arguments[3]:1,o=arguments.length>4&&void 0!==arguments[4]?arguments[4]:0,a=arguments.length>5&&void 0!==arguments[5]?arguments[5]:0;r(this,t),this.m=[n,e,i,u,o,a],this.i=null,this.w=null,this.s=null}return u(t,[{key:"determinant",get:function(){var t=this.m;return t[0]*t[3]-t[1]*t[2]}},{key:"isIdentity",get:function(){if(null===this.i){var t=this.m;this.i=1===t[0]&&0===t[1]&&0===t[2]&&1===t[3]&&0===t[4]&&0===t[5]}return this.i}},{key:"point",value:function(t,n){var e=this.m;return{x:e[0]*t+e[2]*n+e[4],y:e[1]*t+e[3]*n+e[5]}}},{key:"translateSelf",value:function(){var t=arguments.length>0&&void 0!==arguments[0]?arguments[0]:0,n=arguments.length>1&&void 0!==arguments[1]?arguments[1]:0;if(!t&&!n)return this;var e=this.m;return e[4]+=e[0]*t+e[2]*n,e[5]+=e[1]*t+e[3]*n,this.w=this.s=this.i=null,this}},{key:"rotateSelf",value:function(){var t=arguments.length>0&&void 0!==arguments[0]?arguments[0]:0;if(t%=360){var n=S(t*=I),e=O(t),r=this.m,i=r[0],u=r[1];r[0]=i*e+r[2]*n,r[1]=u*e+r[3]*n,r[2]=r[2]*e-i*n,r[3]=r[3]*e-u*n,this.w=this.s=this.i=null}return this}},{key:"scaleSelf",value:function(){var t=arguments.length>0&&void 0!==arguments[0]?arguments[0]:1,n=arguments.length>1&&void 0!==arguments[1]?arguments[1]:1;if(1!==t||1!==n){var e=this.m;e[0]*=t,e[1]*=t,e[2]*=n,e[3]*=n,this.w=this.s=this.i=null}return this}},{key:"skewSelf",value:function(t,n){if(n%=360,(t%=360)||n){var e=this.m,r=e[0],i=e[1],u=e[2],o=e[3];t&&(t=P(t*I),e[2]+=r*t,e[3]+=i*t),n&&(n=P(n*I),e[0]+=u*n,e[1]+=o*n),this.w=this.s=this.i=null}return this}},{key:"resetSelf",value:function(){var t=arguments.length>0&&void 0!==arguments[0]?arguments[0]:1,n=arguments.length>1&&void 0!==arguments[1]?arguments[1]:0,e=arguments.length>2&&void 0!==arguments[2]?arguments[2]:0,r=arguments.length>3&&void 0!==arguments[3]?arguments[3]:1,i=arguments.length>4&&void 0!==arguments[4]?arguments[4]:0,u=arguments.length>5&&void 0!==arguments[5]?arguments[5]:0,o=this.m;return o[0]=t,o[1]=n,o[2]=e,o[3]=r,o[4]=i,o[5]=u,this.w=this.s=this.i=null,this}},{key:"recomposeSelf",value:function(){var t=arguments.length>0&&void 0!==arguments[0]?arguments[0]:null,n=arguments.length>1&&void 0!==arguments[1]?arguments[1]:null,e=arguments.length>2&&void 0!==arguments[2]?arguments[2]:null,r=arguments.length>3&&void 0!==arguments[3]?arguments[3]:null,i=arguments.length>4&&void 0!==arguments[4]?arguments[4]:null;return this.isIdentity||this.resetSelf(),t&&(t.x||t.y)&&this.translateSelf(t.x,t.y),n&&this.rotateSelf(n),e&&(e.x&&this.skewSelf(e.x,0),e.y&&this.skewSelf(0,e.y)),!r||1===r.x&&1===r.y||this.scaleSelf(r.x,r.y),i&&(i.x||i.y)&&this.translateSelf(i.x,i.y),this}},{key:"decompose",value:function(){var t=arguments.length>0&&void 0!==arguments[0]?arguments[0]:0,n=arguments.length>1&&void 0!==arguments[1]?arguments[1]:0,e=this.m,r=e[0]*e[0]+e[1]*e[1],i=[[e[0],e[1]],[e[2],e[3]]],u=F(r);if(0===u)return{origin:{x:d(e[4]),y:d(e[5])},translate:{x:d(t),y:d(n)},scale:{x:0,y:0},skew:{x:0,y:0},rotate:0};i[0][0]/=u,i[0][1]/=u;var o=e[0]*e[3]-e[1]*e[2]<0;o&&(u=-u);var a=i[0][0]*i[1][0]+i[0][1]*i[1][1];i[1][0]-=i[0][0]*a,i[1][1]-=i[0][1]*a;var l=F(i[1][0]*i[1][0]+i[1][1]*i[1][1]);if(0===l)return{origin:{x:d(e[4]),y:d(e[5])},translate:{x:d(t),y:d(n)},scale:{x:d(u),y:0},skew:{x:0,y:0},rotate:0};i[1][0]/=l,i[1][1]/=l,a/=l;var s=0;return i[1][1]<0?(s=j(i[1][1])*R,i[0][1]<0&&(s=360-s)):s=M(i[0][1])*R,o&&(s=-s),a=E(a,F(i[0][0]*i[0][0]+i[0][1]*i[0][1]))*R,o&&(a=-a),{origin:{x:d(e[4]),y:d(e[5])},translate:{x:d(t),y:d(n)},scale:{x:d(u),y:d(l)},skew:{x:d(a),y:0},rotate:d(s)}}},{key:"clone",value:function(){var t=this.m;return new this.constructor(t[0],t[1],t[2],t[3],t[4],t[5])}},{key:"toString",value:function(){var t=arguments.length>0&&void 0!==arguments[0]?arguments[0]:" ";if(null===this.s){var n=this.m.map((function(t){return d(t)}));1===n[0]&&0===n[1]&&0===n[2]&&1===n[3]?this.s="translate("+n[4]+t+n[5]+")":this.s="matrix("+n.join(t)+")"}return this.s}}],[{key:"create",value:function(t){return t?Array.isArray(t)?f(this,v(t)):t instanceof this?t.clone():(new this).recomposeSelf(t.origin,t.rotate,t.skew,t.scale,t.translate):new this}}]),t}();function T(t,n,e){return t>=.5?e:n}function q(t,n,e){return 0===t||n===e?n:t*(e-n)+n}function B(t,n,e){var r=q(t,n,e);return r<=0?0:r}function L(t,n,e){var r=q(t,n,e);return r<=0?0:r>=1?1:r}function C(t,n,e){return 0===t?n:1===t?e:{x:q(t,n.x,e.x),y:q(t,n.y,e.y)}}function D(t,n,e){var r=function(t,n,e){return Math.round(q(t,n,e))}(t,n,e);return r<=0?0:r>=255?255:r}function z(t,n,e){return 0===t?n:1===t?e:{r:D(t,n.r,e.r),g:D(t,n.g,e.g),b:D(t,n.b,e.b),a:q(t,null==n.a?1:n.a,null==e.a?1:e.a)}}function V(t,n){for(var e=[],r=0;r<t;r++)e.push(n);return e}function G(t,n){if(--n<=0)return t;var e=(t=Object.assign([],t)).length;do{for(var r=0;r<e;r++)t.push(t[r])}while(--n>0);return t}var Y,$=function(){function t(n){r(this,t),this.list=n,this.length=n.length}return u(t,[{key:"setAttribute",value:function(t,n){for(var e=this.list,r=0;r<this.length;r++)e[r].setAttribute(t,n)}},{key:"removeAttribute",value:function(t){for(var n=this.list,e=0;e<this.length;e++)n[e].removeAttribute(t)}},{key:"style",value:function(t,n){for(var e=this.list,r=0;r<this.length;r++)e[r].style[t]=n}}]),t}(),U=/-./g,Q=function(t,n){return n.toUpperCase()};function H(t){return"function"==typeof t?t:T}function J(t){return t?"function"==typeof t?t:Array.isArray(t)?function(t){var n=arguments.length>1&&void 0!==arguments[1]?arguments[1]:b;if(!Array.isArray(t))return n;switch(t.length){case 1:return _(t[0])||n;case 2:return _(t[0],t[1])||n;case 4:return x(t[0],t[1],t[2],t[3])||n}return n}(t,null):function(t,n){var e=arguments.length>2&&void 0!==arguments[2]?arguments[2]:b;switch(t){case"linear":return b;case"steps":return _(n.steps||1,n.jump||0)||e;case"bezier":case"cubic-bezier":return x(n.x1||0,n.y1||0,n.x2||0,n.y2||0)||e}return e}(t.type,t.value,null):null}function Z(t,n,e){var r=arguments.length>3&&void 0!==arguments[3]&&arguments[3],i=n.length-1;if(t<=n[0].t)return r?[0,0,n[0].v]:n[0].v;if(t>=n[i].t)return r?[i,1,n[i].v]:n[i].v;var u,o=n[0],a=null;for(u=1;u<=i;u++){if(!(t>n[u].t)){a=n[u];break}o=n[u]}return null==a?r?[i,1,n[i].v]:n[i].v:o.t===a.t?r?[u,1,a.v]:a.v:(t=(t-o.t)/(a.t-o.t),o.e&&(t=o.e(t)),r?[u,t,e(t,o.v,a.v)]:e(t,o.v,a.v))}function K(t,n){var e=arguments.length>2&&void 0!==arguments[2]?arguments[2]:null;return t&&t.length?"function"!=typeof n?null:("function"!=typeof e&&(e=null),function(r){var i=Z(r,t,n);return null!=i&&e&&(i=e(i)),i}):null}function W(t,n){return t.t-n.t}function X(t,n,r,i,u){var o,a="@"===r[0],l="#"===r[0],s=Y[r],f=T;switch(a?(o=r.substr(1),r=o.replace(U,Q)):l&&(r=r.substr(1)),e(s)){case"function":if(f=s(i,u,Z,J,r,a,n,t),l)return f;break;case"string":f=K(i,H(s));break;case"object":if((f=K(i,H(s.i),s.f))&&"function"==typeof s.u)return s.u(n,f,r,a,t)}return f?function(t,n,e){if(arguments.length>3&&void 0!==arguments[3]&&arguments[3])return t instanceof $?function(r){return t.style(n,e(r))}:function(r){return t.style[n]=e(r)};if(Array.isArray(n)){var r=n.length;return function(i){var u=e(i);if(null==u)for(var o=0;o<r;o++)t[o].removeAttribute(n);else for(var a=0;a<r;a++)t[a].setAttribute(n,u)}}return function(r){var i=e(r);null==i?t.removeAttribute(n):t.setAttribute(n,i)}}(n,r,f,a):null}function tt(t,n,r,i){if(!i||"object"!==e(i))return null;var u=null,o=null;return Array.isArray(i)?o=function(t){if(!t||!t.length)return null;for(var n=0;n<t.length;n++)t[n].e&&(t[n].e=J(t[n].e));return t.sort(W)}(i):(o=i.keys,u=i.data||null),o?X(t,n,r,o,u):null}function nt(t,n,e){if(!e)return null;var r=[];for(var i in e)if(e.hasOwnProperty(i)){var u=tt(t,n,i,e[i]);u&&r.push(u)}return r.length?r:null}function et(t,n){if(!n.settings.duration||n.settings.duration<0)return null;var e,r,i,u,o,a=function(t,n){if(!n)return null;var e=[];if(Array.isArray(n))for(var r=n.length,i=0;i<r;i++){var u=n[i];if(2===u.length){var o=null;if("string"==typeof u[0])o=t.getElementById(u[0]);else if(Array.isArray(u[0])){o=[];for(var a=0;a<u[0].length;a++)if("string"==typeof u[0][a]){var l=t.getElementById(u[0][a]);l&&o.push(l)}o=o.length?1===o.length?o[0]:new $(o):null}if(o){var s=nt(t,o,u[1]);s&&(e=e.concat(s))}}}else for(var f in n)if(n.hasOwnProperty(f)){var c=t.getElementById(f);if(c){var h=nt(t,c,n[f]);h&&(e=e.concat(h))}}return e.length?e:null}(t,n.elements);return a?(e=a,r=n.settings,i=r.duration,u=e.length,o=null,function(t,n){var a=r.iterations||1/0,l=(r.alternate&&a%2==0)^r.direction>0?i:0,s=t%i,f=1+(t-s)/i;n*=r.direction,r.alternate&&f%2==0&&(n=-n);var c=!1;if(f>a)s=l,c=!0,-1===r.fill&&(s=r.direction>0?0:i);else if(n<0&&(s=i-s),s===o)return!1;o=s;for(var h=0;h<u;h++)e[h](s);return c}):null}function rt(t,n){if(Y=n,!t||!t.root||!Array.isArray(t.animations))return null;var e=function(t){for(var n=document.getElementsByTagName("svg"),e=0;e<n.length;e++)if(n[e].id===t.root&&!n[e].svgatorAnimation)return n[e].svgatorAnimation=!0,n[e];return null}(t);if(!e)return null;var r=t.animations.map((function(t){return et(e,t)})).filter((function(t){return!!t}));return r.length?{svg:e,animations:r,animationSettings:t.animationSettings,options:t.options||void 0}:null}function it(t){return+("0x"+(t.replace(/[^0-9a-fA-F]+/g,"")||27))}function ut(t,n,e){return!t||!e||n>t.length?t:t.substring(0,n)+ut(t.substring(n+1),e,e)}function ot(t){var n=arguments.length>1&&void 0!==arguments[1]?arguments[1]:27;return!t||t%n?t%n:ot(t/n,n)}function at(t,n,e){if(t&&t.length){var r=it(e),i=it(n),u=ot(r)+5,o=ut(t,ot(r,5),u);return o=o.replace(/\x7c$/g,"==").replace(/\x2f$/g,"="),o=function(t,n,e){var r=+("0x"+t.substring(0,4));t=t.substring(4);for(var i=n%r+e%27,u=[],o=0;o<t.length;o+=2)if("|"!==t[o]){var a=+("0x"+t[o]+t[o+1])-i;u.push(a)}else{var l=+("0x"+t.substring(o+1,o+1+4))-i;o+=3,u.push(l)}return String.fromCharCode.apply(String,u)}(o=(o=atob(o)).replace(/[\x41-\x5A]/g,""),i,r),o=JSON.parse(o)}}var lt=[{key:"alternate",def:!1},{key:"fill",def:1},{key:"iterations",def:0},{key:"direction",def:1},{key:"speed",def:1},{key:"fps",def:100}],st=function(){function t(n,e){var i=this,u=arguments.length>2&&void 0!==arguments[2]?arguments[2]:null;r(this,t),this._id=0,this._running=!1,this._rollingBack=!1,this._animations=n,this._settings=e,(!u||u<"2022-05-02")&&delete this._settings.speed,lt.forEach((function(t){i._settings[t.key]=i._settings[t.key]||t.def})),this.duration=e.duration,this.offset=e.offset||0,this.rollbackStartOffset=0}return u(t,[{key:"alternate",get:function(){return this._settings.alternate}},{key:"fill",get:function(){return this._settings.fill}},{key:"iterations",get:function(){return this._settings.iterations}},{key:"direction",get:function(){return this._settings.direction}},{key:"speed",get:function(){return this._settings.speed}},{key:"fps",get:function(){return this._settings.fps}},{key:"maxFiniteDuration",get:function(){return this.iterations>0?this.iterations*this.duration:this.duration}},{key:"_apply",value:function(t){for(var n=arguments.length>1&&void 0!==arguments[1]?arguments[1]:{},e=this._animations,r=e.length,i=0,u=0;u<r;u++)n[u]?i++:(n[u]=e[u](t,1),n[u]&&i++);return i}},{key:"_rollback",value:function(t){var n=this,e=1/0,r=null;this.rollbackStartOffset=t,this._rollingBack=!0,this._running=!0;this._id=window.requestAnimationFrame((function i(u){if(n._rollingBack){null==r&&(r=u);var o=Math.round(t-(u-r)*n.speed);if(o>n.duration&&e!==1/0){var a=!!n.alternate&&o/n.duration%2>1,l=o%n.duration;o=(l+=a?n.duration:0)||n.duration}var s=(n.fps?1e3/n.fps:0)*n.speed,f=Math.max(0,o);f<e-s&&(n.offset=f,e=f,n._apply(f));var c=n.iterations>0&&-1===n.fill&&o>=n.maxFiniteDuration;(o<=0||n.offset<o||c)&&n.stop(),n._id=window.requestAnimationFrame(i)}}))}},{key:"_start",value:function(){var t=this,n=arguments.length>0&&void 0!==arguments[0]?arguments[0]:0,e=-1/0,r=null,i={};this._running=!0;var u=function u(o){null==r&&(r=o);var a=Math.round((o-r)*t.speed+n),l=(t.fps?1e3/t.fps:0)*t.speed;if(a>e+l&&!t._rollingBack&&(t.offset=a,e=a,t._apply(a,i)===t._animations.length))return void t.pause(!0);t._id=window.requestAnimationFrame(u)};this._id=window.requestAnimationFrame(u)}},{key:"_pause",value:function(){this._id&&window.cancelAnimationFrame(this._id),this._running=!1}},{key:"play",value:function(){if(!this._running)return this._rollingBack?this._rollback(this.offset):this._start(this.offset)}},{key:"stop",value:function(){this._pause(),this.offset=0,this.rollbackStartOffset=0,this._rollingBack=!1,this._apply(0)}},{key:"reachedToEnd",value:function(){return this.iterations>0&&this.offset>=this.iterations*this.duration}},{key:"restart",value:function(){var t=arguments.length>0&&void 0!==arguments[0]&&arguments[0];this.stop(t),this.play(t)}},{key:"pause",value:function(){this._pause()}},{key:"reverse",value:function(){this.direction=-this.direction}}],[{key:"build",value:function(t,n){delete t.animationSettings,t.options=at(t.options,t.root,"5c7f360c"),t.animations.map((function(n){n.settings=at(n.s,t.root,"5c7f360c"),delete n.s,t.animationSettings||(t.animationSettings=n.settings)}));var e=t.version;if(!(t=rt(t,n)))return null;var r=t.options||{},i=new this(t.animations,t.animationSettings,e);return{el:t.svg,options:r,player:i}}},{key:"push",value:function(t){return this.build(t)}},{key:"init",value:function(){var t=this,n=window.__SVGATOR_PLAYER__&&window.__SVGATOR_PLAYER__["5c7f360c"];Array.isArray(n)&&n.splice(0).forEach((function(n){return t.build(n)}))}}]),t}();function ft(t){return d(t)+""}function ct(t){var n=arguments.length>1&&void 0!==arguments[1]?arguments[1]:" ";return t&&t.length?t.map(ft).join(n):""}function ht(t){if(!t)return"transparent";if(null==t.a||t.a>=1){var n=function(t){return 1===(t=parseInt(t).toString(16)).length?"0"+t:t},e=function(t){return t.charAt(0)===t.charAt(1)},r=n(t.r),i=n(t.g),u=n(t.b);return e(r)&&e(i)&&e(u)&&(r=r.charAt(0),i=i.charAt(0),u=u.charAt(0)),"#"+r+i+u}return"rgba("+t.r+","+t.g+","+t.b+","+t.a+")"}function vt(t){return t?"url(#"+t+")":"none"}!function(){for(var t=0,n=["ms","moz","webkit","o"],e=0;e<n.length&&!window.requestAnimationFrame;++e)window.requestAnimationFrame=window[n[e]+"RequestAnimationFrame"],window.cancelAnimationFrame=window[n[e]+"CancelAnimationFrame"]||window[n[e]+"CancelRequestAnimationFrame"];window.requestAnimationFrame||(window.requestAnimationFrame=function(n){var e=Date.now(),r=Math.max(0,16-(e-t)),i=window.setTimeout((function(){n(e+r)}),r);return t=e+r,i},window.cancelAnimationFrame=window.clearTimeout)}();var yt={f:null,i:function(t,n,e){return 0===t?n:1===t?e:{x:B(t,n.x,e.x),y:B(t,n.y,e.y)}},u:function(t,n){return function(e){var r=n(e);t.setAttribute("rx",ft(r.x)),t.setAttribute("ry",ft(r.y))}}},gt={f:null,i:function(t,n,e){return 0===t?n:1===t?e:{width:B(t,n.width,e.width),height:B(t,n.height,e.height)}},u:function(t,n){return function(e){var r=n(e);t.setAttribute("width",ft(r.width)),t.setAttribute("height",ft(r.height))}}};Object.freeze({M:2,L:2,Z:0,H:1,V:1,C:6,Q:4,T:2,S:4,A:7});var dt={},pt=null;function mt(t){var n=function(){if(pt)return pt;if("object"!==("undefined"==typeof document?"undefined":e(document))||!document.createElementNS)return{};var t=document.createElementNS("http://www.w3.org/2000/svg","svg");return t&&t.style?(t.style.position="absolute",t.style.opacity="0.01",t.style.zIndex="-9999",t.style.left="-9999px",t.style.width="1px",t.style.height="1px",pt={svg:t}):{}}().svg;if(!n)return function(t){return null};var r=document.createElementNS(n.namespaceURI,"path");r.setAttributeNS(null,"d",t),r.setAttributeNS(null,"fill","none"),r.setAttributeNS(null,"stroke","none"),n.appendChild(r);var i=r.getTotalLength();return function(t){var n=r.getPointAtLength(i*t);return{x:n.x,y:n.y}}}function bt(t){return dt[t]?dt[t]:dt[t]=mt(t)}function wt(t,n,e,r){if(!t||!r)return!1;var i=["M",t.x,t.y];if(n&&e&&(i.push("C"),i.push(n.x),i.push(n.y),i.push(e.x),i.push(e.y)),n?!e:e){var u=n||e;i.push("Q"),i.push(u.x),i.push(u.y)}return n||e||i.push("L"),i.push(r.x),i.push(r.y),i.join(" ")}function xt(t,n,e,r){var i=arguments.length>4&&void 0!==arguments[4]?arguments[4]:1,u=wt(t,n,e,r),o=bt(u);try{return o(i)}catch(t){return null}}function At(t,n,e){return t+(n-t)*e}function kt(t,n,e){var r=arguments.length>3&&void 0!==arguments[3]&&arguments[3],i={x:At(t.x,n.x,e),y:At(t.y,n.y,e)};return r&&(i.a=_t(t,n)),i}function _t(t,n){return Math.atan2(n.y-t.y,n.x-t.x)}function St(t,n,e,r){var i=1-r;return i*i*t+2*i*r*n+r*r*e}function Ot(t,n,e,r){return 2*(1-r)*(n-t)+2*r*(e-n)}function jt(t,n,e,r){var i=arguments.length>4&&void 0!==arguments[4]&&arguments[4],u=xt(t,n,null,e,r);return u||(u={x:St(t.x,n.x,e.x,r),y:St(t.y,n.y,e.y,r)}),i&&(u.a=Mt(t,n,e,r)),u}function Mt(t,n,e,r){return Math.atan2(Ot(t.y,n.y,e.y,r),Ot(t.x,n.x,e.x,r))}function Pt(t,n,e,r,i){var u=i*i;return i*u*(r-t+3*(n-e))+3*u*(t+e-2*n)+3*i*(n-t)+t}function Et(t,n,e,r,i){var u=1-i;return 3*(u*u*(n-t)+2*u*i*(e-n)+i*i*(r-e))}function It(t,n,e,r,i){var u=arguments.length>5&&void 0!==arguments[5]&&arguments[5],o=xt(t,n,e,r,i);return o||(o={x:Pt(t.x,n.x,e.x,r.x,i),y:Pt(t.y,n.y,e.y,r.y,i)}),u&&(o.a=Rt(t,n,e,r,i)),o}function Rt(t,n,e,r,i){return Math.atan2(Et(t.y,n.y,e.y,r.y,i),Et(t.x,n.x,e.x,r.x,i))}function Ft(t,n,e){var r=arguments.length>3&&void 0!==arguments[3]&&arguments[3];if(Tt(n)){if(qt(e))return jt(n,e.start,e,t,r)}else if(Tt(e)){if(Bt(n))return jt(n,n.end,e,t,r)}else{if(Bt(n))return qt(e)?It(n,n.end,e.start,e,t,r):jt(n,n.end,e,t,r);if(qt(e))return jt(n,e.start,e,t,r)}return kt(n,e,t,r)}function Nt(t,n,e){var r=Ft(t,n,e,!0);return r.a=function(t){return arguments.length>1&&void 0!==arguments[1]&&arguments[1]?t+Math.PI:t}(r.a)/m,r}function Tt(t){return!t.type||"corner"===t.type}function qt(t){return null!=t.start&&!Tt(t)}function Bt(t){return null!=t.end&&!Tt(t)}var Lt=new N;var Ct={f:ft,i:q},Dt={f:ft,i:L};function zt(t,n,e){return t.map((function(t){return function(t,n,e){var r=t.v;if(!r||"g"!==r.t||r.s||!r.v||!r.r)return t;var i=e.getElementById(r.r),u=i&&i.querySelectorAll("stop")||[];return r.s=r.v.map((function(t,n){var e=u[n]&&u[n].getAttribute("offset");return{c:t,o:e=d(parseInt(e)/100)}})),delete r.v,t}(t,0,e)}))}var Vt={gt:"gradientTransform",c:{x:"cx",y:"cy"},rd:"r",f:{x:"x1",y:"y1"},to:{x:"x2",y:"y2"}};function Gt(t,n,r,i,u,o,a,l){return zt(t,0,l),n=function(t,n,e){for(var r,i,u,o=t.length-1,a={},l=0;l<=o;l++)(r=t[l]).e&&(r.e=n(r.e)),r.v&&"g"===(i=r.v).t&&i.r&&(u=e.getElementById(i.r))&&(a[i.r]={e:u,s:u.querySelectorAll("stop")});return a}(t,i,l),function(i){var u=r(i,t,Yt);if(!u)return"none";if("c"===u.t)return ht(u.v);if("g"===u.t){if(!n[u.r])return vt(u.r);var o=n[u.r];return function(t,n){for(var e=t.s,r=e.length;r<n.length;r++){var i=e[e.length-1].cloneNode();i.id=Qt(i.id),t.e.appendChild(i),e=t.s=t.e.querySelectorAll("stop")}for(var u=0,o=e.length,a=n.length-1;u<o;u++)e[u].setAttribute("stop-color",ht(n[Math.min(u,a)].c)),e[u].setAttribute("offset",n[Math.min(u,a)].o)}(o,u.s),Object.keys(Vt).forEach((function(t){if(void 0!==u[t])if("object"!==e(Vt[t])){var n,r="gt"===t?(n=u[t],Array.isArray(n)?"matrix("+n.join(" ")+")":""):u[t],i=Vt[t];o.e.setAttribute(i,r)}else Object.keys(Vt[t]).forEach((function(n){if(void 0!==u[t][n]){var e=u[t][n],r=Vt[t][n];o.e.setAttribute(r,e)}}))})),vt(u.r)}return"none"}}function Yt(t,e,r){if(0===t)return e;if(1===t)return r;if(e&&r){var i=e.t;if(i===r.t)switch(e.t){case"c":return{t:i,v:z(t,e.v,r.v)};case"g":if(e.r===r.r){var u={t:i,s:$t(t,e.s,r.s),r:e.r};return e.gt&&r.gt&&(u.gt=function(t,n,e){var r=n.length;if(r!==e.length)return T(t,n,e);for(var i=new Array(r),u=0;u<r;u++)i[u]=q(t,n[u],e[u]);return i}(t,e.gt,r.gt)),e.c?(u.c=C(t,e.c,r.c),u.rd=B(t,e.rd,r.rd)):e.f&&(u.f=C(t,e.f,r.f),u.to=C(t,e.to,r.to)),u}}if("c"===e.t&&"g"===r.t||"c"===r.t&&"g"===e.t){var o="c"===e.t?e:r,a="g"===e.t?n({},e):n({},r),l=a.s.map((function(t){return{c:o.v,o:t.o}}));return a.s="c"===e.t?$t(t,l,a.s):$t(t,a.s,l),a}}return T(t,e,r)}function $t(t,n,e){if(n.length===e.length)return n.map((function(n,r){return Ut(t,n,e[r])}));for(var r=Math.max(n.length,e.length),i=[],u=0;u<r;u++){var o=Ut(t,n[Math.min(u,n.length-1)],e[Math.min(u,e.length-1)]);i.push(o)}return i}function Ut(t,n,e){return{o:L(t,n.o,e.o||0),c:z(t,n.c,e.c||{})}}function Qt(t){return t.replace(/-fill-([0-9]+)$/,(function(t,n){return"-fill-"+(+n+1)}))}var Ht={fill:Gt,"fill-opacity":Dt,stroke:Gt,"stroke-opacity":Dt,"stroke-width":Ct,"stroke-dashoffset":{f:ft,i:q},"stroke-dasharray":{f:function(t){var n=arguments.length>1&&void 0!==arguments[1]?arguments[1]:" ";return t&&t.length>0&&(t=t.map((function(t){return d(t,4)}))),ct(t,n)},i:function(t,n,e){var r,i,u,o=n.length,a=e.length;if(o!==a)if(0===o)n=V(o=a,0);else if(0===a)a=o,e=V(o,0);else{var l=(u=(r=o)*(i=a)/function(t,n){for(var e;n;)e=n,n=t%n,t=e;return t||1}(r,i))<0?-u:u;n=G(n,Math.floor(l/o)),e=G(e,Math.floor(l/a)),o=a=l}for(var s=[],f=0;f<o;f++)s.push(d(B(t,n[f],e[f])));return s}},opacity:Dt,transform:function(t,n,r,i){if(!(t=function(t,n){if(!t||"object"!==e(t))return null;var r=!1;for(var i in t)t.hasOwnProperty(i)&&(t[i]&&t[i].length?(t[i].forEach((function(t){t.e&&(t.e=n(t.e))})),r=!0):delete t[i]);return r?t:null}(t,i)))return null;var u=function(e,i,u){var o=arguments.length>3&&void 0!==arguments[3]?arguments[3]:null;return t[e]?r(i,t[e],u):n&&n[e]?n[e]:o};return n&&n.a&&t.o?function(n){var e=r(n,t.o,Nt);return Lt.recomposeSelf(e,u("r",n,q,0)+e.a,u("k",n,C),u("s",n,C),u("t",n,C)).toString()}:function(t){return Lt.recomposeSelf(u("o",t,Ft,null),u("r",t,q,0),u("k",t,C),u("s",t,C),u("t",t,C)).toString()}},r:Ct,"#size":gt,"#radius":yt,_:function(t,n){if(Array.isArray(t))for(var e=0;e<t.length;e++)this[t[e]]=n;else this[t]=n}},Jt=function(t){!function(t,n){if("function"!=typeof n&&null!==n)throw new TypeError("Super expression must either be null or a function");t.prototype=Object.create(n&&n.prototype,{constructor:{value:t,writable:!0,configurable:!0}}),n&&l(t,n)}(o,t);var n,e,i=(n=o,e=s(),function(){var t,r=a(n);if(e){var i=a(this).constructor;t=Reflect.construct(r,arguments,i)}else t=r.apply(this,arguments);return c(this,t)});function o(){return r(this,o),i.apply(this,arguments)}return u(o,null,[{key:"build",value:function(t){var n=h(a(o),"build",this).call(this,t,Ht);if(!n)return null;n.el,n.options,function(t,n,e){t.play()}(n.player)}}]),o}(st);return Jt.init(),Jt}));
(function(s,i,o,w,a,b){w[o]=w[o]||{};w[o][s]=w[o][s]||[];w[o][s].push(i);})('5c7f360c',{"root":"eeWJH0jht531","version":"2022-05-04","animations":[{"elements":{"eeWJH0jht532":{"transform":{"data":{"o":{"x":176.247329,"y":57.943729,"type":"corner"},"t":{"x":-173.5,"y":-55}},"keys":{"r":[{"t":0,"v":0},{"t":700,"v":360.329532}]}}}},"s":"MYDA1MlNhYzUzOTVhNmAEzOTJhNTlhYTBVOWYG1MzZiNjg2MTYxNWQ1NMzk1OWFhMzk2OTRhNJTlhYTBIOWY1MzZiNjFI1ZEk1M0M5YWE1OTZBhMzkyYTU5YWEwOWZPRYTQ1MzZiNjE1ZDUzORTc5YTlkOWQ1MzZiUjJYyNWQ1M0I5MjlkYTUM5NmEzOWY5MmE1OTY1NMzZiOTc5MjlkYTQ5NPjVkNTNhNElhMTk2OTTY5NUI1MzZiSDYyYWUY/"}],"options":"MJDAxMEo4ODJmODA4MTKZlN2Y4MTJmNDcyZjcI5N2M2ZTcxMmY4YQ|"},'__SVGATOR_PLAYER__',window)]]></script></svg>